<?xml version="1.0" encoding="utf-8"?>
<!-- Generator: Adobe Illustrator 25.2.0, SVG Export Plug-In . SVG Version: 6.00 Build 0)  -->
<svg version="1.1" id="Layer_1" xmlns="http://www.w3.org/2000/svg" xmlns:xlink="http://www.w3.org/1999/xlink" x="0px" y="0px"
	 viewBox="0 0 300 300" style="enable-background:new 0 0 300 300;" xml:space="preserve">
<style type="text/css">
	.st0{fill:none;stroke:#6B705C;stroke-width:2.1282;}
	.st1{fill:none;stroke:#6B705C;stroke-width:2.1277;}
	.st2{fill:#6B705C;}
</style>
<rect x="199.5" y="51" class="st0" width="49.5" height="49.5"/>
<rect x="199.5" y="100.6" class="st0" width="49.5" height="49.5"/>
<rect x="199.5" y="150.1" class="st0" width="49.5" height="49.5"/>
<rect x="199.5" y="199.5" class="st0" width="49.5" height="49.5"/>
<rect x="150.1" y="51" class="st0" width="49.5" height="49.5"/>
<rect x="150.1" y="100.6" class="st0" width="49.5" height="49.5"/>
<rect x="150.1" y="150.1" class="st0" width="49.5" height="49.5"/>
<rect x="150.1" y="199.5" class="st0" width="49.5" height="49.5"/>
<rect x="100.6" y="51" class="st0" width="49.5" height="49.5"/>
<rect x="100.6" y="100.6" class="st0" width="49.5" height="49.5"/>
<rect x="100.6" y="150.1" class="st0" width="49.5" height="49.5"/>
<rect x="100.6" y="199.5" class="st0" width="49.5" height="49.5"/>
<rect x="51" y="51" class="st0" width="49.5" height="49.5"/>
<rect x="51" y="100.6" class="st0" width="49.5" height="49.5"/>
<rect x="51" y="150.1" class="st0" width="49.5" height="49.5"/>
<rect x="51" y="199.5" class="st0" width="49.5" height="49.5"/>
<line class="st1" x1="51" y1="51" x2="249.1" y2="249.1"/>
<line class="st1" x1="51" y1="150.1" x2="150.1" y2="249.1"/>
<line class="st1" x1="150.1" y1="51" x2="249.1" y2="150.1"/>
<line class="st1" x1="51" y1="249.1" x2="249.1" y2="51"/>
<line class="st1" x1="150.1" y1="249.1" x2="249.1" y2="150.1"/>
<line class="st1" x1="51" y1="150.1" x2="150.1" y2="51"/>
<path class="st2" d="M18.3,245.9c0.5-0.2,0.9-0.4,1.4-0.7c0.5-0.3,0.9-0.6,1.2-1h1v8.3h-1.5v-6.4c-0.2,0.2-0.5,0.3-0.8,0.5
	c-0.3,0.2-0.6,0.3-0.9,0.4L18.3,245.9z"/>
<path class="st2" d="M22.6,197.6c0,0.3-0.1,0.6-0.2,0.8c-0.1,0.3-0.3,0.5-0.5,0.8c-0.2,0.3-0.4,0.5-0.6,0.8
	c-0.2,0.2-0.5,0.5-0.7,0.7c-0.1,0.1-0.3,0.3-0.4,0.4c-0.2,0.2-0.3,0.3-0.5,0.5c-0.1,0.2-0.3,0.3-0.4,0.5c-0.1,0.2-0.2,0.3-0.2,0.4
	h3.7v1.2h-5.3c0-0.1,0-0.1,0-0.2c0-0.1,0-0.2,0-0.2c0-0.4,0.1-0.7,0.2-1.1s0.3-0.6,0.5-0.9c0.2-0.3,0.4-0.5,0.7-0.8
	c0.2-0.2,0.5-0.5,0.7-0.7c0.2-0.2,0.4-0.4,0.6-0.5c0.2-0.2,0.3-0.4,0.5-0.5s0.2-0.3,0.3-0.5c0.1-0.2,0.1-0.4,0.1-0.6
	c0-0.4-0.1-0.7-0.4-0.9c-0.2-0.2-0.5-0.3-0.9-0.3c-0.2,0-0.4,0-0.6,0.1c-0.2,0.1-0.4,0.1-0.5,0.2c-0.1,0.1-0.3,0.2-0.4,0.3
	s-0.2,0.2-0.3,0.2l-0.7-1c0.3-0.3,0.7-0.6,1.2-0.8s0.9-0.3,1.5-0.3c0.9,0,1.5,0.2,2,0.6S22.6,196.9,22.6,197.6z"/>
<path class="st2" d="M19.5,154.9c-0.2,0-0.4,0-0.7,0c-0.2,0-0.4-0.1-0.6-0.1s-0.4-0.1-0.6-0.1c-0.2-0.1-0.3-0.1-0.4-0.1l0.3-1.2
	c0.2,0.1,0.4,0.2,0.7,0.3c0.3,0.1,0.7,0.2,1.2,0.2c0.6,0,1.1-0.1,1.4-0.4c0.3-0.2,0.4-0.6,0.4-1c0-0.3-0.1-0.5-0.2-0.7
	c-0.1-0.2-0.3-0.3-0.4-0.4c-0.2-0.1-0.4-0.2-0.6-0.2s-0.5-0.1-0.8-0.1h-0.5v-1.2h0.6c0.2,0,0.4,0,0.6-0.1s0.4-0.1,0.5-0.2
	c0.2-0.1,0.3-0.2,0.4-0.4c0.1-0.2,0.1-0.3,0.1-0.6c0-0.2,0-0.4-0.1-0.5c-0.1-0.1-0.2-0.2-0.3-0.3c-0.1-0.1-0.3-0.2-0.4-0.2
	s-0.3-0.1-0.5-0.1c-0.4,0-0.7,0.1-1,0.2c-0.3,0.1-0.5,0.2-0.7,0.4l-0.5-1.1c0.1-0.1,0.2-0.1,0.4-0.2c0.2-0.1,0.3-0.2,0.5-0.2
	c0.2-0.1,0.4-0.1,0.6-0.2c0.2,0,0.5-0.1,0.7-0.1c0.5,0,0.9,0.1,1.2,0.2s0.6,0.3,0.8,0.5s0.4,0.4,0.5,0.7c0.1,0.3,0.2,0.6,0.2,0.9
	c0,0.4-0.1,0.7-0.3,1s-0.5,0.5-0.8,0.7c0.4,0.2,0.8,0.4,1.1,0.8c0.3,0.4,0.4,0.8,0.4,1.4c0,0.4-0.1,0.7-0.2,1
	c-0.1,0.3-0.3,0.6-0.6,0.8c-0.3,0.2-0.6,0.4-1,0.5C20.6,154.9,20.1,154.9,19.5,154.9z"/>
<path class="st2" d="M22.7,95.9v5.1h0.9v1.2h-0.9v2h-1.4v-2h-3.6v-1c0.2-0.4,0.4-0.8,0.6-1.2s0.6-0.9,0.9-1.4c0.3-0.5,0.7-1,1-1.4
	c0.4-0.5,0.7-0.9,1.1-1.3H22.7z M21.2,97.7c-0.2,0.2-0.4,0.5-0.6,0.7c-0.2,0.3-0.4,0.5-0.6,0.8s-0.4,0.6-0.6,0.9
	c-0.2,0.3-0.3,0.6-0.5,0.9h2.2V97.7z"/>
<path class="st2" d="M21.4,52.7c0-0.3-0.1-0.5-0.2-0.7s-0.3-0.4-0.5-0.5c-0.3-0.1-0.6-0.3-1-0.3c-0.4-0.1-1-0.1-1.6-0.1
	c0.1-0.8,0.2-1.5,0.2-2.2c0-0.7,0.1-1.4,0.1-2.1h4.2V48h-3c0,0.1,0,0.3,0,0.5s0,0.3,0,0.5c0,0.2,0,0.3,0,0.5c0,0.2,0,0.3,0,0.4
	c1.2,0.1,2.1,0.3,2.6,0.8c0.6,0.5,0.8,1.1,0.8,2c0,0.4-0.1,0.7-0.2,1c-0.1,0.3-0.3,0.6-0.6,0.8c-0.3,0.2-0.6,0.4-1,0.5
	c-0.4,0.1-0.9,0.2-1.4,0.2c-0.2,0-0.4,0-0.7,0s-0.4-0.1-0.6-0.1c-0.2,0-0.4-0.1-0.5-0.1s-0.3-0.1-0.4-0.1l0.3-1.2
	c0.2,0.1,0.4,0.2,0.7,0.3s0.7,0.1,1.2,0.1c0.3,0,0.6,0,0.8-0.1c0.2-0.1,0.4-0.2,0.5-0.3s0.2-0.3,0.3-0.4S21.4,52.9,21.4,52.7z"/>
<path class="st2" d="M52.6,283.9c-0.1-0.3-0.2-0.7-0.3-1c-0.1-0.3-0.2-0.6-0.3-1h-3.5c-0.1,0.3-0.2,0.7-0.3,1s-0.2,0.6-0.3,1h-1.6
	c0.3-0.9,0.6-1.7,0.9-2.5s0.6-1.5,0.8-2.1s0.5-1.3,0.8-1.9c0.3-0.6,0.5-1.2,0.8-1.8h1.4c0.3,0.6,0.6,1.2,0.8,1.8
	c0.3,0.6,0.5,1.2,0.8,1.9c0.3,0.7,0.5,1.4,0.8,2.1c0.3,0.8,0.6,1.6,0.9,2.5H52.6z M50.2,277.2c-0.2,0.4-0.4,0.9-0.6,1.5
	c-0.2,0.6-0.5,1.3-0.7,2h2.7c-0.3-0.7-0.5-1.4-0.7-2C50.5,278.2,50.3,277.6,50.2,277.2z"/>
<path class="st2" d="M100.3,283.8c-0.4,0-0.9,0-1.3,0s-0.8-0.1-1.2-0.2v-8.1c0.2,0,0.4-0.1,0.6-0.1c0.2,0,0.4,0,0.6-0.1
	c0.2,0,0.4,0,0.6,0s0.4,0,0.6,0c0.5,0,1,0,1.4,0.1c0.4,0.1,0.8,0.2,1.1,0.4s0.6,0.4,0.7,0.7c0.2,0.3,0.3,0.6,0.3,1.1
	c0,0.4-0.1,0.7-0.3,1c-0.2,0.3-0.5,0.5-0.8,0.7c0.5,0.2,0.9,0.4,1.1,0.7c0.2,0.3,0.4,0.7,0.4,1.2c0,0.9-0.3,1.5-0.9,1.9
	S101.6,283.8,100.3,283.8z M99.3,278.8h1.1c0.6,0,1-0.1,1.4-0.2c0.3-0.2,0.5-0.5,0.5-0.9c0-0.4-0.2-0.7-0.5-0.9
	c-0.3-0.2-0.8-0.3-1.3-0.3c-0.2,0-0.4,0-0.6,0c-0.2,0-0.3,0-0.5,0V278.8z M99.3,280v2.5c0.2,0,0.3,0,0.5,0s0.4,0,0.5,0
	c0.3,0,0.6,0,0.9-0.1s0.5-0.1,0.7-0.2c0.2-0.1,0.4-0.2,0.5-0.4c0.1-0.2,0.2-0.4,0.2-0.6c0-0.5-0.2-0.8-0.5-1
	c-0.3-0.2-0.8-0.3-1.4-0.3H99.3z"/>
<path class="st2" d="M150.5,283.9c-0.6,0-1.2-0.1-1.7-0.3c-0.5-0.2-0.9-0.5-1.3-0.8c-0.3-0.4-0.6-0.8-0.8-1.4
	c-0.2-0.5-0.3-1.2-0.3-1.8s0.1-1.3,0.3-1.8s0.5-1,0.9-1.4c0.4-0.4,0.8-0.7,1.3-0.8c0.5-0.2,1-0.3,1.6-0.3c0.3,0,0.7,0,0.9,0.1
	c0.3,0.1,0.5,0.1,0.7,0.2s0.4,0.1,0.5,0.2c0.1,0.1,0.2,0.1,0.3,0.2l-0.4,1.2c-0.2-0.1-0.5-0.2-0.8-0.3c-0.4-0.1-0.7-0.2-1.2-0.2
	c-0.4,0-0.7,0.1-1,0.2s-0.6,0.3-0.8,0.6s-0.4,0.6-0.5,0.9c-0.1,0.4-0.2,0.8-0.2,1.3c0,0.4,0,0.8,0.1,1.2s0.3,0.7,0.5,1
	c0.2,0.3,0.5,0.5,0.8,0.6c0.3,0.1,0.7,0.2,1.2,0.2c0.5,0,1-0.1,1.3-0.2c0.3-0.1,0.6-0.2,0.8-0.3l0.4,1.2c-0.1,0.1-0.2,0.1-0.4,0.2
	c-0.2,0.1-0.4,0.1-0.6,0.2c-0.2,0.1-0.5,0.1-0.8,0.1S150.8,283.9,150.5,283.9z"/>
<path class="st2" d="M203.5,279.8c0,0.7-0.1,1.3-0.3,1.9c-0.2,0.5-0.5,1-1,1.3c-0.4,0.4-0.9,0.6-1.5,0.8s-1.2,0.3-1.9,0.3
	c-0.3,0-0.7,0-1.1,0c-0.4,0-0.8-0.1-1.2-0.2v-8.1c0.4-0.1,0.8-0.1,1.2-0.2c0.4,0,0.8,0,1.2,0c0.7,0,1.3,0.1,1.9,0.2
	c0.6,0.2,1.1,0.4,1.5,0.8c0.4,0.3,0.7,0.8,1,1.3C203.4,278.4,203.5,279,203.5,279.8z M197.9,282.7c0.1,0,0.2,0,0.3,0
	c0.1,0,0.3,0,0.6,0c1,0,1.8-0.3,2.3-0.8s0.8-1.2,0.8-2.2c0-0.9-0.2-1.7-0.7-2.2c-0.5-0.5-1.2-0.8-2.3-0.8c-0.4,0-0.8,0-1,0V282.7z"
	/>
<path class="st2" d="M246,283.7v-8.3h5.3v1.3h-3.8v2.1h3.4v1.3h-3.4v2.4h4.1v1.3H246z"/>
</svg>
