<?xml version="1.0" encoding="utf-8"?>
<!-- Generator: Adobe Illustrator 25.4.1, SVG Export Plug-In . SVG Version: 6.00 Build 0)  -->
<svg version="1.1" id="Layer_1" xmlns="http://www.w3.org/2000/svg" xmlns:xlink="http://www.w3.org/1999/xlink" x="0px" y="0px"
	 viewBox="0 0 300 300" style="enable-background:new 0 0 300 300;" xml:space="preserve">
<style type="text/css">
	.st0{fill:none;stroke:#6B705C;stroke-width:2.1282;}
	.st1{fill:none;stroke:#6B705C;stroke-width:2.1277;}
	.st2{fill:#6B705C;}
	.st3{fill:none;}
</style>
<rect x="199.5" y="51" class="st0" width="49.5" height="49.5"/>
<rect x="199.5" y="100.6" class="st0" width="49.5" height="49.5"/>
<rect x="199.5" y="150.1" class="st0" width="49.5" height="49.5"/>
<rect x="199.5" y="199.5" class="st0" width="49.5" height="49.5"/>
<rect x="150.1" y="51" class="st0" width="49.5" height="49.5"/>
<rect x="150.1" y="100.6" class="st0" width="49.5" height="49.5"/>
<rect x="150.1" y="150.1" class="st0" width="49.5" height="49.5"/>
<rect x="150.1" y="199.5" class="st0" width="49.5" height="49.5"/>
<rect x="100.6" y="51" class="st0" width="49.5" height="49.5"/>
<rect x="100.6" y="100.6" class="st0" width="49.5" height="49.5"/>
<rect x="100.6" y="150.1" class="st0" width="49.5" height="49.5"/>
<rect x="100.6" y="199.5" class="st0" width="49.5" height="49.5"/>
<rect x="51" y="51" class="st0" width="49.5" height="49.5"/>
<rect x="51" y="100.6" class="st0" width="49.5" height="49.5"/>
<rect x="51" y="150.1" class="st0" width="49.5" height="49.5"/>
<rect x="51" y="199.5" class="st0" width="49.5" height="49.5"/>
<line class="st1" x1="51" y1="51" x2="249.1" y2="249.1"/>
<line class="st1" x1="51" y1="150.1" x2="150.1" y2="249.1"/>
<line class="st1" x1="150.1" y1="51" x2="249.1" y2="150.1"/>
<line class="st1" x1="51" y1="249.1" x2="249.1" y2="51"/>
<line class="st1" x1="150.1" y1="249.1" x2="249.1" y2="150.1"/>
<line class="st1" x1="51" y1="150.1" x2="150.1" y2="51"/>
<g>
	<g>
		<path class="st2" d="M18.2,245.9c0.2-0.1,0.5-0.2,0.7-0.3s0.5-0.3,0.7-0.4c0.2-0.1,0.5-0.3,0.7-0.5c0.2-0.2,0.4-0.3,0.6-0.5h1.2
			v8.3h-1.8v-6c-0.2,0.2-0.5,0.3-0.8,0.4c-0.3,0.1-0.6,0.2-0.9,0.3L18.2,245.9z"/>
	</g>
</g>
<g>
	<path class="st2" d="M22.7,197.6c0,0.3-0.1,0.6-0.2,0.9s-0.3,0.5-0.5,0.8c-0.2,0.3-0.4,0.5-0.6,0.8c-0.2,0.2-0.5,0.5-0.7,0.7
		c-0.1,0.1-0.3,0.2-0.4,0.4c-0.1,0.1-0.3,0.3-0.4,0.4s-0.2,0.3-0.3,0.4s-0.2,0.2-0.2,0.3h3.6v1.5h-5.5c0-0.1,0-0.2,0-0.3
		s0-0.2,0-0.3c0-0.4,0.1-0.7,0.2-1.1c0.1-0.3,0.3-0.6,0.5-0.9c0.2-0.3,0.4-0.5,0.7-0.8c0.3-0.2,0.5-0.5,0.8-0.7
		c0.2-0.2,0.4-0.4,0.5-0.5s0.3-0.3,0.4-0.5c0.1-0.2,0.2-0.3,0.3-0.5s0.1-0.3,0.1-0.5c0-0.4-0.1-0.6-0.3-0.7
		c-0.2-0.1-0.4-0.2-0.7-0.2c-0.2,0-0.4,0-0.6,0.1c-0.2,0.1-0.4,0.1-0.5,0.2c-0.2,0.1-0.3,0.2-0.4,0.3c-0.1,0.1-0.2,0.2-0.3,0.2
		l-0.9-1.2c0.4-0.3,0.8-0.6,1.2-0.8c0.5-0.2,1-0.3,1.5-0.3c0.5,0,0.9,0.1,1.3,0.2s0.6,0.3,0.9,0.5s0.4,0.5,0.5,0.7
		S22.7,197.2,22.7,197.6z"/>
</g>
<g>
	<path class="st2" d="M19.7,155.1c-0.2,0-0.4,0-0.7,0c-0.2,0-0.5-0.1-0.7-0.1c-0.2,0-0.4-0.1-0.6-0.2c-0.2-0.1-0.3-0.1-0.4-0.2
		l0.3-1.5c0.2,0.1,0.5,0.2,0.8,0.3c0.3,0.1,0.7,0.2,1.2,0.2c0.6,0,1-0.1,1.2-0.3s0.4-0.5,0.4-0.8c0-0.2,0-0.4-0.1-0.5
		c-0.1-0.1-0.2-0.3-0.4-0.4c-0.2-0.1-0.4-0.2-0.6-0.2c-0.2,0-0.5-0.1-0.7-0.1h-0.7v-1.4h0.8c0.2,0,0.3,0,0.5,0
		c0.2,0,0.3-0.1,0.4-0.2c0.1-0.1,0.2-0.2,0.3-0.3c0.1-0.1,0.1-0.3,0.1-0.5c0-0.2,0-0.3-0.1-0.4s-0.1-0.2-0.2-0.3
		c-0.1-0.1-0.2-0.1-0.3-0.2c-0.1,0-0.3-0.1-0.4-0.1c-0.3,0-0.7,0.1-1,0.2c-0.3,0.1-0.6,0.2-0.8,0.4l-0.6-1.3
		c0.1-0.1,0.3-0.2,0.4-0.3c0.2-0.1,0.4-0.2,0.6-0.2c0.2-0.1,0.4-0.1,0.7-0.2c0.2,0,0.5-0.1,0.8-0.1c0.5,0,0.9,0.1,1.3,0.2
		c0.4,0.1,0.6,0.3,0.9,0.5s0.4,0.5,0.5,0.7c0.1,0.3,0.2,0.6,0.2,0.9c0,0.3-0.1,0.6-0.3,1c-0.2,0.3-0.4,0.5-0.7,0.7
		c0.4,0.2,0.8,0.4,1,0.8c0.2,0.3,0.4,0.8,0.4,1.3c0,0.4-0.1,0.7-0.2,1.1c-0.1,0.3-0.3,0.6-0.6,0.8s-0.6,0.4-1,0.6
		C20.7,155,20.2,155.1,19.7,155.1z"/>
</g>
<g>
	<path class="st2" d="M22.9,95.9v5h0.9v1.5h-0.9v1.9h-1.8v-1.9h-3.6V101c0.2-0.4,0.4-0.8,0.7-1.2c0.3-0.4,0.6-0.9,0.9-1.4
		c0.3-0.5,0.7-0.9,1-1.4c0.4-0.4,0.7-0.9,1.1-1.2H22.9z M21.1,98.1c-0.3,0.4-0.6,0.9-1,1.3s-0.6,1-0.9,1.5h1.9V98.1z"/>
</g>
<g>
	<path class="st2" d="M21.5,52.6c0-0.2-0.1-0.4-0.2-0.6c-0.1-0.2-0.3-0.3-0.5-0.5c-0.3-0.1-0.6-0.2-1-0.3c-0.4-0.1-1-0.1-1.6-0.1
		c0.1-0.7,0.2-1.5,0.2-2.3c0.1-0.8,0.1-1.5,0.1-2.2H23v1.5h-3c0,0.3,0,0.6-0.1,0.8s0,0.5-0.1,0.7c1.2,0.1,2,0.4,2.6,0.8
		s0.8,1.1,0.8,2c0,0.4-0.1,0.7-0.2,1.1c-0.1,0.3-0.3,0.6-0.6,0.9c-0.3,0.2-0.6,0.4-1,0.6c-0.4,0.1-0.9,0.2-1.4,0.2
		c-0.2,0-0.4,0-0.7,0c-0.2,0-0.5-0.1-0.7-0.1c-0.2,0-0.4-0.1-0.6-0.1c-0.2,0-0.3-0.1-0.4-0.1l0.3-1.5c0.2,0.1,0.5,0.2,0.8,0.3
		s0.7,0.1,1.2,0.1c0.6,0,1-0.1,1.2-0.3C21.3,53.2,21.5,52.9,21.5,52.6z"/>
</g>
<g>
	<path class="st2" d="M52.4,283.9c-0.1-0.3-0.2-0.6-0.3-0.9c-0.1-0.3-0.2-0.6-0.3-0.9h-3.2c-0.1,0.3-0.2,0.6-0.3,0.9
		s-0.2,0.6-0.3,0.9H46c0.3-0.9,0.6-1.7,0.9-2.5c0.3-0.8,0.6-1.5,0.8-2.1c0.3-0.7,0.5-1.3,0.8-1.9s0.5-1.2,0.8-1.8h1.8
		c0.3,0.6,0.5,1.2,0.8,1.8s0.5,1.2,0.8,1.9c0.3,0.7,0.5,1.4,0.8,2.1c0.3,0.8,0.6,1.6,0.9,2.5H52.4z M50.2,277.5
		c0,0.1-0.1,0.3-0.2,0.5c-0.1,0.2-0.2,0.4-0.3,0.7c-0.1,0.3-0.2,0.6-0.3,0.9c-0.1,0.3-0.3,0.7-0.4,1h2.4c-0.1-0.4-0.3-0.7-0.4-1
		c-0.1-0.3-0.2-0.6-0.3-0.9s-0.2-0.5-0.3-0.7C50.3,277.7,50.2,277.6,50.2,277.5z"/>
</g>
<g>
	<path class="st2" d="M100.4,283.8c-0.5,0-0.9,0-1.4,0c-0.5,0-0.9-0.1-1.4-0.2v-8.1c0.4-0.1,0.8-0.1,1.3-0.2c0.5,0,0.9-0.1,1.3-0.1
		c0.5,0,1,0,1.5,0.1c0.4,0.1,0.8,0.2,1.1,0.4c0.3,0.2,0.6,0.4,0.8,0.7c0.2,0.3,0.3,0.7,0.3,1.1c0,0.7-0.3,1.2-1,1.6
		c0.5,0.2,0.9,0.5,1.1,0.8c0.2,0.3,0.3,0.7,0.3,1.2c0,0.9-0.3,1.5-1,2C102.6,283.6,101.6,283.8,100.4,283.8z M99.4,278.7h0.9
		c0.6,0,1-0.1,1.2-0.2c0.2-0.1,0.4-0.4,0.4-0.7c0-0.3-0.1-0.6-0.4-0.7c-0.3-0.1-0.6-0.2-1.1-0.2c-0.2,0-0.3,0-0.5,0s-0.3,0-0.5,0
		V278.7z M99.4,280.1v2.1c0.1,0,0.3,0,0.4,0c0.2,0,0.3,0,0.5,0c0.6,0,1-0.1,1.4-0.2c0.3-0.2,0.5-0.5,0.5-0.9c0-0.4-0.1-0.7-0.4-0.8
		c-0.3-0.2-0.7-0.2-1.2-0.2H99.4z"/>
</g>
<g>
	<path class="st2" d="M150.4,284.1c-1.4,0-2.4-0.4-3.1-1.1s-1.1-1.8-1.1-3.2c0-0.7,0.1-1.3,0.3-1.8c0.2-0.5,0.5-1,0.9-1.4
		s0.8-0.7,1.3-0.8c0.5-0.2,1.1-0.3,1.7-0.3c0.4,0,0.7,0,1,0.1c0.3,0.1,0.5,0.1,0.8,0.2s0.4,0.1,0.5,0.2c0.1,0.1,0.2,0.1,0.3,0.2
		l-0.5,1.5c-0.3-0.1-0.6-0.3-0.9-0.3s-0.7-0.1-1.2-0.1c-0.3,0-0.6,0-0.8,0.1s-0.5,0.2-0.7,0.5s-0.4,0.5-0.5,0.8s-0.2,0.7-0.2,1.2
		c0,0.4,0,0.7,0.1,1.1s0.2,0.6,0.4,0.9c0.2,0.2,0.4,0.4,0.7,0.6c0.3,0.1,0.7,0.2,1.1,0.2c0.3,0,0.5,0,0.7,0s0.4-0.1,0.6-0.1
		c0.2,0,0.3-0.1,0.4-0.1s0.2-0.1,0.3-0.2l0.5,1.5c-0.3,0.2-0.6,0.3-1.1,0.4C151.6,284,151,284.1,150.4,284.1z"/>
</g>
<g>
	<path class="st2" d="M203.7,279.9c0,0.7-0.1,1.3-0.3,1.9c-0.2,0.5-0.5,1-1,1.3c-0.4,0.4-0.9,0.6-1.5,0.8c-0.6,0.2-1.3,0.3-2,0.3
		c-0.3,0-0.7,0-1.2,0c-0.4,0-0.9-0.1-1.3-0.2v-8.1c0.4-0.1,0.9-0.1,1.3-0.2c0.5,0,0.9,0,1.2,0c0.7,0,1.4,0.1,1.9,0.2
		s1.1,0.4,1.5,0.8s0.7,0.8,1,1.3C203.6,278.5,203.7,279.2,203.7,279.9z M198.3,282.6c0.1,0,0.2,0,0.3,0s0.3,0,0.4,0
		c0.9,0,1.6-0.2,2.1-0.7s0.7-1.1,0.7-2c0-0.9-0.2-1.5-0.6-2c-0.4-0.4-1.1-0.7-2.1-0.7c-0.1,0-0.3,0-0.4,0s-0.3,0-0.4,0V282.6z"/>
</g>
<g>
	<path class="st2" d="M246,283.8v-8.3h5.6v1.6h-3.7v1.6h3.3v1.5h-3.3v2h4v1.6H246z"/>
</g>
<rect x="0" y="0" class="st3" width="300" height="300"/>
</svg>
