<?xml version="1.0" encoding="utf-8"?>
<!-- Generator: Adobe Illustrator 25.4.1, SVG Export Plug-In . SVG Version: 6.00 Build 0)  -->
<svg version="1.1" id="Layer_1" xmlns="http://www.w3.org/2000/svg" xmlns:xlink="http://www.w3.org/1999/xlink" x="0px" y="0px"
	 viewBox="0 0 512 512" style="enable-background:new 0 0 512 512;" xml:space="preserve">
<style type="text/css">
	.st0{fill:#9F8976;}
	.st1{fill:#FFEBD2;}
	.st2{fill:#FFFFFF;}
	.st3{fill:#464655;}
	.st4{fill:#877364;}
	.st5{fill:#CFBAA4;}
</style>
<path class="st0" d="M256,96.8c66.1,0,102.1,36.7,116.7,67.6c8.5,18.1,15.5,37.6,15.5,59.1c0,43.8-16.5,160.5-16.5,160.5
	c-8.3,52.1-24.3,79.8-66.1,84H256h-49.6c-41.7-4.2-57.8-32-66.1-84c0,0-16.5-116.7-16.5-160.5c0-21.5,7-41,15.5-59.1
	C153.9,133.5,189.9,96.8,256,96.8z"/>
<path class="st1" d="M198.2,430.3c0,47.4,25.9,62.9,57.8,62.9s57.8-15.5,57.8-62.9H198.2z"/>
<path class="st2" d="M330.3,403.3c0,36.6-33.3,48.7-74.3,48.7s-74.3-12-74.3-48.7s33.3-75.2,74.3-75.2S330.3,366.6,330.3,403.3z"/>
<g>
	<circle class="st3" cx="165.2" cy="245.5" r="16.5"/>
	<circle class="st3" cx="346.8" cy="245.5" r="16.5"/>
	<path class="st3" d="M296.8,404.9c0.1-0.5,0.4-0.9,0.5-1.4c0.1-0.8,0-1.6-0.1-2.3c0-0.3,0-0.6,0-0.8c-0.1-0.5-0.5-1-0.7-1.5
		c-0.2-0.5-0.4-1-0.7-1.5c0,0,0,0,0,0v0c-2.6-3.4-7.3-4.2-10.8-2c-0.2,0.1-0.5,0.2-0.7,0.3l-2,1.5c-0.4,0.3-0.8,0.6-1.2,0.9
		c-14.6,11-35,11-49.7,0.1l-3.3-2.5c-1.8-1.3-3.9-1.8-5.9-1.6c-0.1,0-0.1,0-0.2,0c-0.4,0.1-0.8,0.3-1.2,0.4
		c-1.6,0.5-3.1,1.3-4.2,2.8c-2.7,3.6-2,8.8,1.7,11.6l3.3,2.5c0,0,0,0,0,0l29.7,22.3c1.5,1.1,3.2,1.7,5,1.7c1.6,0,3.2-0.5,4.6-1.4
		c1.9-1.2,20.8-15.5,30.2-22.6c0,0,0,0,0,0l3.1-2.4l0,0l0,0c0.1-0.1,0.2-0.3,0.4-0.4c0.7-0.6,1.4-1.3,1.8-2.1
		C296.5,406,296.6,405.4,296.8,404.9z"/>
</g>
<g>
	<path class="st4" d="M90.8,319.8c-27.9,21.2-36-89.6,48.9-187.2c0,0-59.8-22.4-75-11c-43.1,32.3-30.3,213.3-30.3,213.3l34.4,12.4
		L90.8,319.8z"/>
	<path class="st4" d="M156.9,171.2c74.3-8.3,82.6-66.1,82.6-66.1C231.2,63.8,99.1-57,27.9,88.6c0,0,80.9,2.1,82.9,4.1
		C112.9,94.8,156.9,171.2,156.9,171.2"/>
</g>
<path class="st0" d="M90.8,319.8C74.3,402.4,0,369.3,0,195.9C0,122.2,41.3,39,74.3,39c66.1,0,82.6,132.1,82.6,132.1
	S46.5,53.5,46.5,268.2C46.5,375.5,90.8,319.8,90.8,319.8z"/>
<g>
	<path class="st4" d="M421.2,319.8c27.9,21.2,36-89.6-48.9-187.2c0,0,59.8-22.4,75-11c43.1,32.3,30.3,213.3,30.3,213.3l-34.4,12.4
		L421.2,319.8z"/>
	<path class="st4" d="M355.1,171.2c-74.3-8.3-82.6-66.1-82.6-66.1C280.8,63.8,412.9-57,484.1,88.6c0,0-80.9,2.1-82.9,4.1
		C399.1,94.8,355.1,171.2,355.1,171.2"/>
</g>
<g>
	<path class="st0" d="M421.2,319.8c16.5,82.6,90.8,49.5,90.8-123.9C512,122.2,470.7,39,437.7,39c-66.1,0-82.6,132.1-82.6,132.1
		s110.5-117.7,110.5,97C465.5,375.5,421.2,319.8,421.2,319.8z"/>
	<path class="st0" d="M164.6,199.3c0,0-36.3-43.5-102-35.4c-8.5,1.1-14.3,9.2-12.8,17.6c3.6,20,19,53.4,81.8,59.1L164.6,199.3z"/>
</g>
<path class="st5" d="M82.2,163.1c-6.2-0.2-12.7,0-19.6,0.9c-8.5,1.1-14.3,9.2-12.8,17.6c3.5,20,19,53.4,81.8,59.1
	C131.6,240.6,138.5,185,82.2,163.1z"/>
<path class="st0" d="M347.4,199.3c0,0,36.3-43.5,102-35.4c8.5,1.1,14.3,9.2,12.8,17.6c-3.6,20-19,53.4-81.8,59.1L347.4,199.3z"/>
<path class="st5" d="M429.8,163.1c6.2-0.2,12.7,0,19.6,0.9c8.5,1.1,14.3,9.2,12.8,17.6c-3.5,20-19,53.4-81.8,59.1
	C380.4,240.6,373.5,185,429.8,163.1z"/>
</svg>
