<?xml version="1.0" standalone="no"?>
<!DOCTYPE svg PUBLIC "-//W3C//DTD SVG 20010904//EN"
 "http://www.w3.org/TR/2001/REC-SVG-20010904/DTD/svg10.dtd">
<svg version="1.0" xmlns="http://www.w3.org/2000/svg"
 width="100.000000pt" height="100.000000pt" viewBox="0 0 100.000000 100.000000"
 preserveAspectRatio="xMidYMid meet">

<g transform="translate(0.000000,100.000000) scale(0.100000,-0.100000)"
fill="#231f20" stroke="none">
<path d="M107 954 c-4 -4 -7 -58 -7 -121 l0 -114 123 3 c100 3 122 6 122 18 0
12 -19 16 -89 20 l-90 5 50 44 c169 151 420 145 579 -14 230 -230 121 -620
-195 -701 -245 -63 -486 107 -518 366 -5 39 -11 55 -22 55 -35 0 -18 -126 31
-224 16 -32 52 -82 80 -110 185 -188 479 -187 657 4 135 144 167 336 85 512
-35 76 -140 181 -213 215 -179 83 -377 53 -514 -78 l-45 -43 -3 81 c-3 75 -13
100 -31 82z"/>
<path d="M360 479 c0 -105 4 -189 8 -187 5 2 82 45 171 97 136 79 159 96 144
104 -10 6 -85 48 -166 94 -82 46 -151 83 -153 83 -2 0 -4 -86 -4 -191z m151
65 c54 -31 99 -59 99 -63 0 -5 -174 -108 -202 -119 -4 -2 -8 51 -8 117 0 67 3
121 6 121 3 0 51 -25 105 -56z"/>
</g>
</svg>
