<?xml version="1.0" encoding="utf-8"?>
<!-- Generator: Adobe Illustrator 25.4.1, SVG Export Plug-In . SVG Version: 6.00 Build 0)  -->
<svg version="1.1" id="Layer_1" xmlns="http://www.w3.org/2000/svg" xmlns:xlink="http://www.w3.org/1999/xlink" x="0px" y="0px"
	 viewBox="0 0 512 512" style="enable-background:new 0 0 512 512;" xml:space="preserve">
<style type="text/css">
	.st0{fill:#FF8C46;}
	.st1{fill:#FFCFA4;}
	.st2{fill:#FFA54B;}
	.st3{fill:#FFEBD2;}
	.st4{fill:#FFDEB7;}
	.st5{fill:#464655;}
</style>
<g>
	<path class="st0" d="M163.2,67.1c-33.6,0-42-67.1-83.9-67.1C52.7,0,28.9,16.8,28.9,50.4s58.8,50.4,42,109.1L163.2,67.1z"/>
	<path class="st0" d="M347.8,67.1c33.6,0,42-67.1,83.9-67.1c26.5,0,50.4,16.8,50.4,50.4s-58.8,50.4-42,109.1L347.8,67.1z"/>
</g>
<g>
	<path class="st1" d="M331.5,461.6c0,27.8-19.9,50.4-75.5,50.4s-75.5-22.5-75.5-50.4v-8.4h150.6L331.5,461.6z"/>
	<path class="st1" d="M459.4,182.9c34.4,56.3,40,102.5,40,102.5h-16.8c0,0,16.8,41.4,16.8,67.1l-25.2-8.4c0,0,16.8,37.8,16.8,67.1
		c0,0.5-25.2-8.4-25.2-8.4s12.6,28.3,8.4,42c-0.2,0.5-25.2-8.4-25.2-8.4s7.3,19.6,0,33.6l-42-16.8c0,0-7.8,25.7-8.4,25.2
		c-18.4-16.8-42-25.2-42-25.2H155.3c0,0-23.6,8.4-42,25.2c-0.5,0.5-8.4-25.2-8.4-25.2L63,470c-7.3-14,0-33.6,0-33.6
		s-25,8.9-25.2,8.4c-4.2-13.6,8.4-42,8.4-42S21,411.8,21,411.3c0-29.4,16.8-67.1,16.8-67.1l-25.2,8.4c0-25.7,16.8-67.1,16.8-67.1
		H12.6c0,0,5.6-46.2,40-102.5H459.4z"/>
</g>
<ellipse class="st2" cx="255.5" cy="230.8" rx="209.8" ry="197.2"/>
<g>
	
		<ellipse transform="matrix(0.7968 -0.6042 0.6042 0.7968 -109.7093 141.8893)" class="st3" cx="156.1" cy="234.1" rx="46.2" ry="37.8"/>
	
		<ellipse transform="matrix(0.6042 -0.7968 0.7968 0.6042 -46.0388 375.4758)" class="st3" cx="354.9" cy="234.1" rx="37.8" ry="46.2"/>
</g>
<path class="st0" d="M255.5,260.2L255.5,260.2c-28.7,0-55.1,18.3-68.5,47.5c-18.2,39.4-40.6,92-40.6,112h218.2
	c0-20-22.4-72.6-40.6-112C310.6,278.5,284.2,260.2,255.5,260.2z"/>
<path class="st4" d="M304.8,369.3c-19.4,0-36.9,6-49.3,15.6c-12.4-9.6-29.9-15.6-49.3-15.6c-37.7,0-68.2,22.5-68.2,50.4
	s30.5,50.4,68.2,50.4c15.7,0,30.2-3.9,41.7-10.6c4.8-2.7,10.4-2.7,15.1,0c11.5,6.6,26,10.6,41.7,10.6c37.7,0,68.2-22.5,68.2-50.4
	S342.5,369.3,304.8,369.3z"/>
<g>
	<path class="st5" d="M215.3,375l33.5,44.2c3.4,4.4,10,4.4,13.4,0l33.5-44.2c4.2-5.5,0.2-13.5-6.7-13.5h-4.5c-2.5,0-5,0.4-7.4,1.1
		l-14.1,4.4c-4.8,1.5-10,1.5-14.9,0l-14.1-4.4c-2.4-0.7-4.9-1.1-7.4-1.1H222C215.1,361.5,211.2,369.5,215.3,375z"/>
	<circle class="st5" cx="154.8" cy="235" r="16.8"/>
	<circle class="st5" cx="356.2" cy="235" r="16.8"/>
	<path class="st5" d="M77.4,335l46.2-37.8c4-3.3,1.1-9.8-4-9l-61.5,9.5C63.1,310.9,69.6,323.3,77.4,335z"/>
	<path class="st5" d="M121.5,382.6l25.1-66.8c1.9-5.1-4.5-9.3-8.4-5.4L93,355.6C101.6,365.4,111.1,374.5,121.5,382.6z"/>
	<path class="st5" d="M226.4,109.1l-6.6-72.7c-8.1,1.3-16.1,3-23.8,5.2l21.5,69.2C219.1,116.2,226.9,114.6,226.4,109.1z"/>
	<path class="st5" d="M291.3,36.5l-6.6,72.7c-0.5,5.5,7.3,7,8.9,1.8l21.5-69.2C307.3,39.5,299.4,37.8,291.3,36.5z"/>
	<path class="st5" d="M337.4,49.2l-20.5,47.4c-2.1,4.9,4.5,8.9,7.8,4.6l32.7-42.8C350.9,55,344.3,51.9,337.4,49.2z"/>
	<path class="st5" d="M194.2,96.6l-20.5-47.4c-6.9,2.7-13.6,5.9-20,9.2l32.7,42.8C189.6,105.5,196.3,101.6,194.2,96.6z"/>
	<path class="st5" d="M272.2,34.3c-5.5-0.4-11.1-0.7-16.7-0.7s-11.2,0.3-16.7,0.7L251,137.7c0.6,5.4,8.4,5.4,9.1,0L272.2,34.3z"/>
	<path class="st5" d="M434.9,335l-46.2-37.8c-4-3.3-1.1-9.8,4-9l61.5,9.5C449.1,310.9,442.6,323.3,434.9,335z"/>
	<path class="st5" d="M390.7,382.6l-25.1-66.8c-1.9-5.1,4.5-9.3,8.4-5.4l45.2,45.2C410.7,365.4,401.1,374.5,390.7,382.6z"/>
</g>
</svg>
